<svg width="38" height="38" viewBox="0 0 38 38" fill="none" xmlns="http://www.w3.org/2000/svg">
<mask id="path-1-inside-1_20_334" fill="white">
<path fill-rule="evenodd" clip-rule="evenodd" d="M17.5 1H27V10.5C27 13.191 25.8832 15.6193 24.0876 17.3471H24.2958C26.3686 17.3471 29.0475 17.9996 30.6758 19.0861C31.8924 19.2923 32.9966 19.8783 33.6607 20.938C34.5108 22.2944 35.0023 23.8837 35 25.581C35 29.1105 32.0345 32 28.412 32H9.58802C5.96552 32 3 29.1105 3 25.581C3 24.814 3.44842 24.1769 4.09136 23.8008C3.72792 23.8679 3.36414 23.9343 3 24C3.77171 20.4809 6.9971 17.7496 10.9577 17.3879C9.13598 15.657 8 13.2111 8 10.5C8.00366 5.24991 12.2543 1 17.5 1Z"/>
</mask>
<path d="M27 1H29V-1H27V1ZM24.0876 17.3471L22.7009 15.906L19.1248 19.3471H24.0876V17.3471ZM30.6758 19.0861L29.5657 20.7497L29.9207 20.9866L30.3414 21.0579L30.6758 19.0861ZM33.6607 20.938L35.3554 19.876L33.6607 20.938ZM35 25.581L33 25.5783V25.581H35ZM4.09136 23.8008L5.10121 25.5271L3.72819 21.834L4.09136 23.8008ZM3 24L1.04642 23.5716L0.404145 26.5004L3.35497 25.9682L3 24ZM10.9577 17.3879L11.1396 19.3796L15.5351 18.9782L12.3353 15.938L10.9577 17.3879ZM8 10.5L6 10.4986V10.5H8ZM27 -1H17.5V3H27V-1ZM29 10.5V1H25V10.5H29ZM25.4744 18.7883C27.6461 16.6986 29 13.7563 29 10.5H25C25 12.6258 24.1204 14.54 22.7009 15.906L25.4744 18.7883ZM24.2958 15.3471H24.0876V19.3471H24.2958V15.3471ZM31.7859 17.4224C29.7503 16.0641 26.6571 15.3471 24.2958 15.3471V19.3471C26.0801 19.3471 28.3448 19.9351 29.5657 20.7497L31.7859 17.4224ZM35.3554 19.876C34.3126 18.2118 32.6311 17.3891 31.0101 17.1142L30.3414 21.0579C31.1536 21.1956 31.6806 21.5447 31.966 22.0001L35.3554 19.876ZM37 25.5836C37.0028 23.492 36.3958 21.5361 35.3554 19.876L31.966 22.0001C32.6258 23.0528 33.0017 24.2754 33 25.5783L37 25.5836ZM28.412 34C33.0897 34 37 30.2638 37 25.581H33C33 27.9573 30.9792 30 28.412 30V34ZM9.58802 34H28.412V30H9.58802V34ZM1 25.581C1 30.2638 4.91025 34 9.58802 34V30C7.02078 30 5 27.9573 5 25.581H1ZM3.08151 22.0744C1.95345 22.7343 1 23.9666 1 25.581H5C5 25.586 4.999 25.596 4.99562 25.6073C4.99245 25.6178 4.9895 25.6218 4.99142 25.6188C4.99652 25.6108 5.02585 25.5712 5.10121 25.5271L3.08151 22.0744ZM3.35497 25.9682C3.72205 25.902 4.08857 25.8351 4.45453 25.7675L3.72819 21.834C3.36728 21.9007 3.00624 21.9666 2.64503 22.0318L3.35497 25.9682ZM10.7758 15.3962C6.03748 15.8289 2.02362 19.1155 1.04642 23.5716L4.95358 24.4284C5.51981 21.8464 7.95673 19.6703 11.1396 19.3796L10.7758 15.3962ZM6 10.5C6 13.7818 7.37763 16.7451 9.58013 18.8378L12.3353 15.938C10.8943 14.5689 10 12.6404 10 10.5H6ZM17.5 -1C11.1491 -1 6.00443 4.1457 6 10.4986L10 10.5014C10.0029 6.35412 13.3596 3 17.5 3V-1Z" fill="#D7D7D7" mask="url(#path-1-inside-1_20_334)"/>
<path d="M18.5 19.2361L19.2328 21.4914C19.5005 22.3154 20.2685 22.8734 21.1349 22.8734L23.5063 22.8734L21.5878 24.2672C20.8868 24.7765 20.5935 25.6792 20.8613 26.5033L21.5941 28.7586L19.6756 27.3647C18.9746 26.8555 18.0254 26.8555 17.3244 27.3647L15.4059 28.7586L16.1387 26.5033C16.4065 25.6792 16.1132 24.7765 15.4122 24.2672L13.4937 22.8734H15.8651C16.7315 22.8734 17.4995 22.3154 17.7672 21.4914L18.5 19.2361Z" stroke="#D7D7D7" stroke-width="2"/>
</svg>
