<svg width="38" height="38" viewBox="0 0 38 38" fill="none" xmlns="http://www.w3.org/2000/svg">
<path d="M33.1575 22.4566L33.1574 22.4563C32.5001 20.1484 31.5105 17.8321 30.3953 16.0839L30.3766 16.0551C30.2979 15.9342 30.2232 15.8192 30.1454 15.7047L29.868 15.3057L29.5678 14.9093C28.6771 13.7861 27.6658 13 26.4883 13C25.8577 13 25.2007 13.1348 24.4723 13.3231C24.4714 13.3234 24.4706 13.3236 24.4697 13.3238L23.1494 13.6729L23.1375 13.6761L23.1374 13.676C21.8321 14.004 20.4046 14.3125 18.9997 14.3125C17.596 14.3125 16.1698 14.0045 14.8653 13.6768C14.7106 13.639 14.5582 13.5991 14.4092 13.5591L14.4086 13.5589L13.5259 13.3215C12.7974 13.1345 12.1412 13 11.5111 13C10.3336 13 9.32236 13.7861 8.43167 14.9093L8.13103 15.3063L7.85802 15.6977L7.60285 16.0859C6.48797 17.8355 5.49896 20.1496 4.84198 22.4551C4.18422 24.7633 3.85076 27.0828 4.06412 28.8349L33.1575 22.4566ZM33.1575 22.4566C33.8154 24.764 34.15 27.0842 33.9354 28.8342C33.8317 29.6775 33.5369 30.4902 33.0556 31.0705C32.6001 31.6196 31.9507 32 30.9814 32C29.0117 32 27.4187 31.0839 25.9893 30.0627L24.3322 28.8447L24.3323 28.8447M33.1575 22.4566L24.3323 28.8447M24.3323 28.8447L24.3231 28.8381M24.3323 28.8447L24.3231 28.8381M24.3231 28.8381C22.9184 27.8298 21.1824 26.75 18.9997 26.75C16.8171 26.75 15.0798 27.8296 13.677 28.8387L13.677 28.8387M24.3231 28.8381L13.677 28.8387M13.677 28.8387L13.6691 28.8444M13.677 28.8387L13.6691 28.8444M13.6691 28.8444L12.012 30.0612M13.6691 28.8444L12.012 30.0612M12.012 30.0612C10.5791 31.084 8.9861 32 7.01798 32C6.04776 32 5.39807 31.6194 4.94272 31.0705C4.46157 30.4905 4.16721 29.6782 4.06416 28.8353L12.012 30.0612Z" stroke="#D7D7D7" stroke-width="2"/>
<circle cx="3" cy="3" r="3" transform="matrix(1 0 0 -1 9 24)" fill="#D7D7D7"/>
<path fill-rule="evenodd" clip-rule="evenodd" d="M24.5 15C23.6716 15 23 15.6716 23 16.5V19L20.5 19C19.6716 19 19 19.6716 19 20.5C19 21.3284 19.6716 22 20.5 22H23V24.5C23 25.3284 23.6716 26 24.5 26C25.3284 26 26 25.3284 26 24.5V22H28.5C29.3284 22 30 21.3284 30 20.5C30 19.6716 29.3284 19 28.5 19L26 19V16.5C26 15.6716 25.3284 15 24.5 15Z" fill="#D7D7D7"/>
<path d="M20.0001 13C20.3334 11 20.0001 7 16.0001 7C12.0001 7 12.3334 4 13.0001 2.5" stroke="#D7D7D7" stroke-width="2" stroke-linecap="round"/>
</svg>
