<svg width="38" height="38" viewBox="0 0 38 38" fill="none" xmlns="http://www.w3.org/2000/svg">
<mask id="path-1-inside-1_20_351" fill="white">
<path d="M4.30365 13.616C4.29144 13.6032 4.27944 13.5901 4.26765 13.5769L4.27583 13.5785L4.21201 13.509C4.18027 13.4733 4.14725 13.4386 4.11301 13.4051C3.77215 13.0788 3.35604 12.8332 2.89797 12.6879L1.39492 12.2192C1.30865 12.1897 1.23066 12.1416 1.16703 12.0787C1.10339 12.0157 1.05583 11.9396 1.02805 11.8562C1.00026 11.7728 0.992993 11.6845 1.00681 11.598C1.02064 11.5115 1.05517 11.4292 1.10773 11.3575C1.17906 11.2623 1.27932 11.1903 1.39492 11.1513L2.89797 10.6826C3.34934 10.5341 3.75871 10.2882 4.09419 9.96388C4.16537 9.88576 4.23246 9.80451 4.29465 9.72092C4.51812 9.45914 4.69502 9.16408 4.8183 8.84754L5.31904 7.3781C5.36027 7.26777 5.43614 7.17227 5.53629 7.10461C5.63644 7.03695 5.75601 7.00042 5.8787 7C6.00143 7 6.1217 7.03594 6.22234 7.1039C6.2518 7.12734 6.27962 7.1539 6.30416 7.18202C6.36144 7.23748 6.40644 7.30467 6.43508 7.37732L6.92682 8.81082C7.07933 9.24665 7.33592 9.64263 7.6763 9.96748C8.01668 10.2923 8.43153 10.5371 8.88806 10.6826L10.3919 11.1513L10.4222 11.1576C10.5375 11.1969 10.6374 11.2692 10.7081 11.3647C10.7788 11.4602 10.817 11.5742 10.8174 11.6911C10.818 11.8085 10.7802 11.9231 10.7092 12.019C10.6382 12.1148 10.5375 12.187 10.4214 12.2255L8.91751 12.6942C8.46085 12.8403 8.0462 13.0861 7.70657 13.4121C7.36589 13.7367 7.10901 14.1325 6.95627 14.5683L6.46535 16.0026L6.45144 16.0377C6.41674 16.099 6.3704 16.1536 6.3148 16.1986C6.30499 16.209 6.29622 16.2203 6.28862 16.2322C6.27716 16.2486 6.26571 16.265 6.24771 16.2768C6.12139 16.3609 5.96593 16.3952 5.81378 16.3724C5.66163 16.3497 5.52454 16.2718 5.43114 16.1549C5.39399 16.1075 5.36498 16.0548 5.34522 15.9987L4.8543 14.5652C4.74421 14.2465 4.5782 13.948 4.36338 13.6824C4.34426 13.6594 4.32488 13.6372 4.30365 13.616ZM24.1051 13.0629C24.792 13.7182 25.2599 14.5534 25.4495 15.4627C25.6391 16.3719 25.5419 17.3145 25.1702 18.171C24.7985 19.0276 24.169 19.7596 23.3615 20.2744C22.5539 20.7892 21.6045 21.0637 20.6334 21.0632C19.3317 21.0628 18.0834 20.5689 17.1628 19.6901C16.2423 18.8114 15.7248 17.6196 15.7242 16.3768C15.7241 15.7612 15.851 15.1517 16.0977 14.583C16.3443 14.0144 16.706 13.4977 17.1619 13.0624C17.6178 12.6272 18.159 12.2821 18.7547 12.0466C19.3503 11.8112 19.9887 11.6901 20.6334 11.6903C21.936 11.6903 23.1838 12.1841 24.1051 13.0629ZM33.9317 7.00391H8.02731L8.47568 8.32257C8.54724 8.52831 8.66765 8.71546 8.82751 8.86941C8.84877 8.88819 8.87147 8.90543 8.89542 8.92097C8.91342 8.93269 8.93061 8.94441 8.94615 8.95847H33.9317C34.203 8.95847 34.4631 9.06135 34.6549 9.24448C34.8467 9.42761 34.9545 9.67599 34.9545 9.93497V29.0713C34.9545 29.3303 34.8467 29.5786 34.6549 29.7618C34.4631 29.9449 34.203 30.0478 33.9317 30.0478H28.8179V25.1645C28.8179 24.4911 28.5378 23.8454 28.0391 23.3692C27.5404 22.8931 26.864 22.6256 26.1588 22.6256H15.1089C14.4036 22.6256 13.7273 22.8931 13.2286 23.3692C12.7299 23.8454 12.4497 24.4911 12.4497 25.1645V30.0454H7.33592C7.20154 30.0455 7.06846 30.0204 6.94428 29.9713C6.8201 29.9223 6.70725 29.8504 6.61219 29.7597C6.51713 29.669 6.44173 29.5613 6.39028 29.4428C6.33883 29.3243 6.31235 29.1972 6.31235 29.0689V17.9009C6.17763 17.9269 6.04067 17.9407 5.90324 17.9423C5.44185 17.9432 4.99165 17.8066 4.61539 17.5517C4.48687 17.4567 4.36995 17.3482 4.26683 17.2283V29.0705C4.26672 29.4552 4.34601 29.8362 4.50017 30.1917C4.65433 30.5472 4.88033 30.8701 5.16527 31.1422C5.4502 31.4142 5.78849 31.63 6.1608 31.7772C6.53311 31.9244 6.93214 32.0001 7.3351 32H33.9317C34.3348 32 34.7339 31.9242 35.1063 31.7769C35.4786 31.6295 35.817 31.4136 36.1019 31.1414C36.3868 30.8692 36.6128 30.5461 36.7669 30.1905C36.921 29.8349 37.0002 29.4538 37 29.0689V9.93263C37.0001 9.54793 36.9208 9.16698 36.7666 8.81155C36.6125 8.45613 36.3865 8.13319 36.1015 7.8612C35.8166 7.58922 35.4783 7.37351 35.106 7.22641C34.7337 7.07931 34.3346 7.0037 33.9317 7.00391ZM9.46735 17.7439C9.73079 17.6571 9.96973 17.5135 10.1656 17.3242C10.3614 17.135 10.5089 16.9051 10.5965 16.6525L10.882 15.8166C10.9062 15.7526 10.9506 15.6972 11.009 15.6582C11.0675 15.6191 11.1372 15.5984 11.2085 15.5987C11.2801 15.5986 11.3499 15.6199 11.4081 15.6596C11.4663 15.6979 11.5106 15.7525 11.535 15.8159L11.8197 16.6525C11.9082 16.9072 12.0578 17.1385 12.2568 17.328C12.4557 17.5175 12.6983 17.6599 12.9652 17.7439L13.8407 18.0157L13.8587 18.0204C13.9256 18.0436 13.9834 18.086 14.0241 18.1418C14.0649 18.1976 14.0865 18.2641 14.0861 18.3321C14.0863 18.4 14.0646 18.4663 14.0239 18.5219C13.9832 18.5776 13.9255 18.6199 13.8587 18.643L12.9815 18.9157C12.7147 18.9999 12.4722 19.1424 12.2732 19.3319C12.0742 19.5213 11.9242 19.7525 11.8352 20.007L11.5489 20.8429C11.5246 20.9067 11.4803 20.9618 11.422 21.0007C11.3637 21.0395 11.2943 21.0603 11.2232 21.0601C11.1517 21.0601 11.0819 21.0388 11.0236 20.9991C10.9654 20.9608 10.9211 20.9062 10.8968 20.8429L10.612 20.007C10.5243 19.7515 10.3749 19.5191 10.1759 19.3288C9.97698 19.1384 9.73399 18.9953 9.46653 18.911L8.59105 18.6391C8.52324 18.6163 8.46449 18.5741 8.42288 18.5181C8.38126 18.4622 8.35884 18.3953 8.35868 18.3266C8.35839 18.2582 8.38057 18.1914 8.42211 18.1356C8.46364 18.0799 8.52244 18.0379 8.59023 18.0157L9.46735 17.7439Z"/>
</mask>
<path d="M4.30365 13.616C4.29144 13.6032 4.27944 13.5901 4.26765 13.5769L4.27583 13.5785L4.21201 13.509C4.18027 13.4733 4.14725 13.4386 4.11301 13.4051C3.77215 13.0788 3.35604 12.8332 2.89797 12.6879L1.39492 12.2192C1.30865 12.1897 1.23066 12.1416 1.16703 12.0787C1.10339 12.0157 1.05583 11.9396 1.02805 11.8562C1.00026 11.7728 0.992993 11.6845 1.00681 11.598C1.02064 11.5115 1.05517 11.4292 1.10773 11.3575C1.17906 11.2623 1.27932 11.1903 1.39492 11.1513L2.89797 10.6826C3.34934 10.5341 3.75871 10.2882 4.09419 9.96388C4.16537 9.88576 4.23246 9.80451 4.29465 9.72092C4.51812 9.45914 4.69502 9.16408 4.8183 8.84754L5.31904 7.3781C5.36027 7.26777 5.43614 7.17227 5.53629 7.10461C5.63644 7.03695 5.75601 7.00042 5.8787 7C6.00143 7 6.1217 7.03594 6.22234 7.1039C6.2518 7.12734 6.27962 7.1539 6.30416 7.18202C6.36144 7.23748 6.40644 7.30467 6.43508 7.37732L6.92682 8.81082C7.07933 9.24665 7.33592 9.64263 7.6763 9.96748C8.01668 10.2923 8.43153 10.5371 8.88806 10.6826L10.3919 11.1513L10.4222 11.1576C10.5375 11.1969 10.6374 11.2692 10.7081 11.3647C10.7788 11.4602 10.817 11.5742 10.8174 11.6911C10.818 11.8085 10.7802 11.9231 10.7092 12.019C10.6382 12.1148 10.5375 12.187 10.4214 12.2255L8.91751 12.6942C8.46085 12.8403 8.0462 13.0861 7.70657 13.4121C7.36589 13.7367 7.10901 14.1325 6.95627 14.5683L6.46535 16.0026L6.45144 16.0377C6.41674 16.099 6.3704 16.1536 6.3148 16.1986C6.30499 16.209 6.29622 16.2203 6.28862 16.2322C6.27716 16.2486 6.26571 16.265 6.24771 16.2768C6.12139 16.3609 5.96593 16.3952 5.81378 16.3724C5.66163 16.3497 5.52454 16.2718 5.43114 16.1549C5.39399 16.1075 5.36498 16.0548 5.34522 15.9987L4.8543 14.5652C4.74421 14.2465 4.5782 13.948 4.36338 13.6824C4.34426 13.6594 4.32488 13.6372 4.30365 13.616ZM24.1051 13.0629C24.792 13.7182 25.2599 14.5534 25.4495 15.4627C25.6391 16.3719 25.5419 17.3145 25.1702 18.171C24.7985 19.0276 24.169 19.7596 23.3615 20.2744C22.5539 20.7892 21.6045 21.0637 20.6334 21.0632C19.3317 21.0628 18.0834 20.5689 17.1628 19.6901C16.2423 18.8114 15.7248 17.6196 15.7242 16.3768C15.7241 15.7612 15.851 15.1517 16.0977 14.583C16.3443 14.0144 16.706 13.4977 17.1619 13.0624C17.6178 12.6272 18.159 12.2821 18.7547 12.0466C19.3503 11.8112 19.9887 11.6901 20.6334 11.6903C21.936 11.6903 23.1838 12.1841 24.1051 13.0629ZM33.9317 7.00391H8.02731L8.47568 8.32257C8.54724 8.52831 8.66765 8.71546 8.82751 8.86941C8.84877 8.88819 8.87147 8.90543 8.89542 8.92097C8.91342 8.93269 8.93061 8.94441 8.94615 8.95847H33.9317C34.203 8.95847 34.4631 9.06135 34.6549 9.24448C34.8467 9.42761 34.9545 9.67599 34.9545 9.93497V29.0713C34.9545 29.3303 34.8467 29.5786 34.6549 29.7618C34.4631 29.9449 34.203 30.0478 33.9317 30.0478H28.8179V25.1645C28.8179 24.4911 28.5378 23.8454 28.0391 23.3692C27.5404 22.8931 26.864 22.6256 26.1588 22.6256H15.1089C14.4036 22.6256 13.7273 22.8931 13.2286 23.3692C12.7299 23.8454 12.4497 24.4911 12.4497 25.1645V30.0454H7.33592C7.20154 30.0455 7.06846 30.0204 6.94428 29.9713C6.8201 29.9223 6.70725 29.8504 6.61219 29.7597C6.51713 29.669 6.44173 29.5613 6.39028 29.4428C6.33883 29.3243 6.31235 29.1972 6.31235 29.0689V17.9009C6.17763 17.9269 6.04067 17.9407 5.90324 17.9423C5.44185 17.9432 4.99165 17.8066 4.61539 17.5517C4.48687 17.4567 4.36995 17.3482 4.26683 17.2283V29.0705C4.26672 29.4552 4.34601 29.8362 4.50017 30.1917C4.65433 30.5472 4.88033 30.8701 5.16527 31.1422C5.4502 31.4142 5.78849 31.63 6.1608 31.7772C6.53311 31.9244 6.93214 32.0001 7.3351 32H33.9317C34.3348 32 34.7339 31.9242 35.1063 31.7769C35.4786 31.6295 35.817 31.4136 36.1019 31.1414C36.3868 30.8692 36.6128 30.5461 36.7669 30.1905C36.921 29.8349 37.0002 29.4538 37 29.0689V9.93263C37.0001 9.54793 36.9208 9.16698 36.7666 8.81155C36.6125 8.45613 36.3865 8.13319 36.1015 7.8612C35.8166 7.58922 35.4783 7.37351 35.106 7.22641C34.7337 7.07931 34.3346 7.0037 33.9317 7.00391ZM9.46735 17.7439C9.73079 17.6571 9.96973 17.5135 10.1656 17.3242C10.3614 17.135 10.5089 16.9051 10.5965 16.6525L10.882 15.8166C10.9062 15.7526 10.9506 15.6972 11.009 15.6582C11.0675 15.6191 11.1372 15.5984 11.2085 15.5987C11.2801 15.5986 11.3499 15.6199 11.4081 15.6596C11.4663 15.6979 11.5106 15.7525 11.535 15.8159L11.8197 16.6525C11.9082 16.9072 12.0578 17.1385 12.2568 17.328C12.4557 17.5175 12.6983 17.6599 12.9652 17.7439L13.8407 18.0157L13.8587 18.0204C13.9256 18.0436 13.9834 18.086 14.0241 18.1418C14.0649 18.1976 14.0865 18.2641 14.0861 18.3321C14.0863 18.4 14.0646 18.4663 14.0239 18.5219C13.9832 18.5776 13.9255 18.6199 13.8587 18.643L12.9815 18.9157C12.7147 18.9999 12.4722 19.1424 12.2732 19.3319C12.0742 19.5213 11.9242 19.7525 11.8352 20.007L11.5489 20.8429C11.5246 20.9067 11.4803 20.9618 11.422 21.0007C11.3637 21.0395 11.2943 21.0603 11.2232 21.0601C11.1517 21.0601 11.0819 21.0388 11.0236 20.9991C10.9654 20.9608 10.9211 20.9062 10.8968 20.8429L10.612 20.007C10.5243 19.7515 10.3749 19.5191 10.1759 19.3288C9.97698 19.1384 9.73399 18.9953 9.46653 18.911L8.59105 18.6391C8.52324 18.6163 8.46449 18.5741 8.42288 18.5181C8.38126 18.4622 8.35884 18.3953 8.35868 18.3266C8.35839 18.2582 8.38057 18.1914 8.42211 18.1356C8.46364 18.0799 8.52244 18.0379 8.59023 18.0157L9.46735 17.7439Z" stroke="#D7D7D7" stroke-width="4" mask="url(#path-1-inside-1_20_351)"/>
</svg>
