<svg width="24" height="10" viewBox="0 0 24 10" fill="none" xmlns="http://www.w3.org/2000/svg">
    <path d="M6.29468 4.48767L1.65714 0.444682C1.01017 -0.119338 0 0.340154 0 1.19846V8.9277C0 9.76475 0.966983 10.2314 1.62224 9.71052L6.25979 6.02427C6.74894 5.63546 6.76568 4.89828 6.29468 4.48767Z" fill="white" fill-opacity="0.2"/>
    <path d="M14.4946 4.48767L9.85709 0.444682C9.21012 -0.119338 8.19995 0.340154 8.19995 1.19846V8.9277C8.19995 9.76475 9.16693 10.2314 9.8222 9.71052L14.4597 6.02427C14.9489 5.63546 14.9656 4.89828 14.4946 4.48767Z" fill="white" fill-opacity="0.5"/>
    <path d="M22.6946 4.48767L18.057 0.444682C17.4101 -0.119338 16.3999 0.340154 16.3999 1.19846V8.9277C16.3999 9.76475 17.3669 10.2314 18.0221 9.71052L22.6597 6.02427C23.1488 5.63546 23.1656 4.89828 22.6946 4.48767Z" fill="white"/>
</svg>
