<svg width="27" height="53" viewBox="0 0 27 53" fill="none" xmlns="http://www.w3.org/2000/svg">
<path d="M4.85012 36.2962L1.64074 40.4922C1.19233 41.0784 0.967049 41.7999 1.0039 42.5318C1.04075 43.2636 1.33741 43.9599 1.84253 44.4999L7.90255 50.9824C8.50791 51.631 9.36311 52 10.2615 52H17.662C21.5056 52 24.068 48.8593 24.068 45.7185V35.1336C24.068 33.1554 23.2441 33.1554 22.4202 33.1555L19.2635 33.1554" stroke="white" stroke-width="2" stroke-linecap="round" stroke-linejoin="round"/>
<path d="M23.2441 33.1553H9.6545V22.9462C9.65407 22.3217 9.40079 21.723 8.95033 21.2816C8.49987 20.8401 7.8891 20.5922 7.25227 20.5922C6.61516 20.5922 6.00414 20.8404 5.55363 21.2821C5.10313 21.7239 4.85004 22.323 4.85004 22.9478V41.0072" stroke="white" stroke-width="2" stroke-linecap="round" stroke-linejoin="round"/>
<path d="M21.3617 1.46357C20.975 0.806732 20.025 0.806732 19.6383 1.46357L15.7584 8.05328C15.3658 8.71991 15.8465 9.56065 16.6201 9.56065H24.3799C25.1535 9.56065 25.6341 8.71991 25.2416 8.05328L21.3617 1.46357Z" fill="white"/>
<rect x="23" y="11.767" width="3.92232" height="5" transform="rotate(90 23 11.767)" fill="white"/>
<rect x="23" y="16.6699" width="1.96116" height="5" transform="rotate(90 23 16.6699)" fill="white"/>
<path d="M20.5 26.9562C18.8339 26.9562 17.5 25.6343 17.5 24.0242C17.5 22.4141 18.8339 21.0922 20.5 21.0922C22.1661 21.0922 23.5 22.4141 23.5 24.0242C23.5 25.6343 22.1661 26.9562 20.5 26.9562Z" stroke="white"/>
</svg>
