<svg width="28" height="38" viewBox="0 0 28 38" fill="none" xmlns="http://www.w3.org/2000/svg">
<path d="M9.80923 22.5065L7.10537 26.112C6.72759 26.6156 6.53779 27.2356 6.56884 27.8644C6.59988 28.4933 6.84982 29.0915 7.27537 29.5555L12.3809 35.1256C12.8909 35.6829 13.6114 36 14.3683 36H20.6031C23.8413 36 26.0001 33.3013 26.0001 30.6026V21.5076C26.0001 19.8078 25.306 19.8078 24.6119 19.8079L21.9524 19.8078" stroke="white" stroke-width="2.12791" stroke-linecap="round" stroke-linejoin="round"/>
<path d="M25.3059 19.8077H13.8568V11.0356C13.8564 10.499 13.643 9.98457 13.2635 9.60529C12.884 9.226 12.3695 9.01294 11.8329 9.01294C11.2962 9.01294 10.7814 9.22618 10.4019 9.60576C10.0223 9.98534 9.80908 10.5002 9.80908 11.037V26.5545" stroke="white" stroke-width="2.12791" stroke-linecap="round" stroke-linejoin="round"/>
<path d="M18.4835 16.7669C19.4756 15.4349 20.0504 13.8387 20.1353 12.18C20.2202 10.5213 19.8113 8.87473 18.9605 7.44842C18.1097 6.02211 16.855 4.88016 15.3552 4.16697C13.8554 3.45378 12.1779 3.20139 10.5346 3.4417C8.8914 3.68202 7.35633 4.40426 6.12354 5.51708C4.89075 6.6299 4.01561 8.08333 3.60877 9.69356C3.20194 11.3038 3.2817 12.9985 3.83796 14.5634C4.39421 16.1283 5.40199 17.4931 6.73384 18.4852" stroke="white" stroke-width="2.12791"/>
</svg>
