<svg width="44" height="48" viewBox="0 0 44 48" fill="none" xmlns="http://www.w3.org/2000/svg">
<path d="M19.9326 32.4192L17.2128 36.048C16.8328 36.5549 16.6419 37.1788 16.6731 37.8118C16.7043 38.4447 16.9557 39.0468 17.3838 39.5138L22.5194 45.12C23.0324 45.6808 23.7572 46 24.5186 46H30.7901C34.0474 46 36.2189 43.2838 36.2189 40.5677V31.4138C36.2189 29.703 35.5207 29.703 34.8225 29.7031L32.1473 29.703" stroke="white" stroke-width="2.12791" stroke-linecap="round" stroke-linejoin="round"/>
<path d="M35.5206 29.7029H24.0039V20.874C24.0036 20.334 23.7889 19.8162 23.4072 19.4344C23.0255 19.0527 22.5078 18.8383 21.9682 18.8383C21.4282 18.8383 20.9104 19.0529 20.5286 19.4349C20.1469 19.817 19.9324 20.3351 19.9324 20.8754V36.4933" stroke="white" stroke-width="2.12791" stroke-linecap="round" stroke-linejoin="round"/>
<path d="M28.6583 27.341C29.6561 26.0004 30.2343 24.3939 30.3197 22.7245C30.4051 21.0551 29.9939 19.3978 29.138 17.9623C28.2822 16.5267 27.0201 15.3774 25.5115 14.6596C24.0029 13.9418 22.3154 13.6877 20.6625 13.9296C19.0096 14.1715 17.4654 14.8984 16.2254 16.0184C14.9853 17.1384 14.105 18.6013 13.6958 20.2219C13.2866 21.8426 13.3668 23.5483 13.9263 25.1233C14.4859 26.6984 15.4996 28.072 16.8393 29.0705" stroke="white" stroke-width="1.77325"/>
<path d="M14.471 33.4057C12.1679 31.9033 10.3734 29.7384 9.32346 27.1959C8.27356 24.6534 8.0175 21.8523 8.58897 19.1614C9.16045 16.4704 10.5327 14.0156 12.5251 12.1201C14.5175 10.2245 17.0368 8.97687 19.7513 8.54146C22.4659 8.10605 25.2487 8.50321 27.7333 9.68069C30.218 10.8582 32.2883 12.7608 33.6716 15.1382C35.055 17.5156 35.6866 20.2564 35.4835 22.9999C35.3761 24.4507 35.0378 25.8664 34.4888 27.1959" stroke="white" stroke-opacity="0.5" stroke-width="2.12791"/>
<path d="M11.7697 37.649C8.64038 35.6076 6.20199 32.666 4.7754 29.2112C3.34882 25.7565 3.00089 21.9505 3.77739 18.2941C4.5539 14.6377 6.41846 11.3021 9.12572 8.72645C11.833 6.15076 15.2561 4.45556 18.9446 3.86393C22.6331 3.2723 26.4142 3.81196 29.7904 5.41189C33.1665 7.01183 35.9795 9.59707 37.8592 12.8274C39.7388 16.0578 40.5971 19.7819 40.3211 23.5098C40.1751 25.4811 39.7156 27.4047 38.9696 29.2112" stroke="white" stroke-opacity="0.2" stroke-width="2.12791"/>
</svg>
