<svg width="27" height="53" viewBox="0 0 27 53" fill="none" xmlns="http://www.w3.org/2000/svg">
<path d="M22.1499 16.7039L25.3593 12.5078C25.8077 11.9216 26.033 11.2002 25.9961 10.4683C25.9593 9.73642 25.6626 9.04021 25.1575 8.50019L19.0975 2.01765C18.4921 1.36908 17.6369 1.00003 16.7385 1.00003L9.33799 1.00003C5.49442 1.00003 2.93205 4.1408 2.93204 7.28158L2.93204 17.8664C2.93204 19.8447 3.7559 19.8446 4.57975 19.8446L7.7365 19.8447" stroke="white" stroke-width="2" stroke-linecap="round" stroke-linejoin="round"/>
<path d="M3.7559 19.8447L17.3455 19.8447L17.3455 30.0538C17.3459 30.6783 17.5992 31.277 18.0497 31.7185C18.5001 32.1599 19.1109 32.4078 19.7477 32.4078C20.3848 32.4078 20.9959 32.1597 21.4464 31.7179C21.8969 31.2761 22.15 30.677 22.15 30.0523L22.15 11.9928" stroke="white" stroke-width="2" stroke-linecap="round" stroke-linejoin="round"/>
<path d="M5.63827 51.5364C6.02501 52.1933 6.97499 52.1933 7.36173 51.5364L11.2416 44.9467C11.6342 44.2801 11.1535 43.4393 10.3799 43.4393L2.62008 43.4393C1.84648 43.4393 1.36585 44.2801 1.75835 44.9467L5.63827 51.5364Z" fill="white"/>
<rect x="4" y="41.233" width="3.92232" height="5" transform="rotate(-90 4 41.233)" fill="white"/>
<rect x="4" y="36.3301" width="1.96116" height="5" transform="rotate(-90 4 36.3301)" fill="white"/>
<path d="M6.5 26.0438C8.16614 26.0438 9.5 27.3657 9.5 28.9758C9.5 30.5859 8.16614 31.9078 6.5 31.9078C4.83386 31.9078 3.5 30.5859 3.5 28.9758C3.5 27.3657 4.83386 26.0438 6.5 26.0438Z" stroke="white"/>
</svg>
